<?xml version="1.0" encoding="UTF-8"?>
<svg xmlns="http://www.w3.org/2000/svg" xmlns:xlink="http://www.w3.org/1999/xlink" width="1600px" height="400px" viewBox="0 0 1600 400" version="1.1">
<g id="surface1">
<rect x="0" y="0" width="1600" height="400" style="fill:rgb(100%,100%,100%);fill-opacity:1;stroke:none;"/>
<path style=" stroke:none;fill-rule:nonzero;fill:rgb(4.313726%,4.313726%,4.313726%);fill-opacity:1;" d="M 700.351562 246.066406 C 700.355469 202 700.335938 158.882812 700.367188 115.765625 C 700.375 102.128906 702.074219 100.429688 715.816406 100.421875 C 772.121094 100.390625 828.425781 100.390625 884.726562 100.417969 C 898.605469 100.425781 900.308594 102.082031 900.316406 115.640625 C 900.347656 172.074219 900.347656 228.503906 900.320312 284.9375 C 900.3125 298.480469 898.414062 300.371094 884.847656 300.378906 C 828.542969 300.40625 772.238281 300.40625 715.9375 300.378906 C 702.257812 300.371094 700.414062 298.53125 700.363281 285.0625 C 700.316406 272.378906 700.355469 259.699219 700.351562 246.066406 M 793.660156 289.796875 C 825.652344 289.796875 857.644531 289.796875 889.503906 289.796875 C 889.503906 229.609375 889.503906 170.515625 889.503906 111.546875 C 829.652344 111.546875 770.355469 111.546875 711.183594 111.546875 C 711.183594 171.1875 711.183594 230.28125 711.183594 289.796875 C 738.40625 289.796875 765.078125 289.796875 793.660156 289.796875 Z M 793.660156 289.796875 "/>
<path style=" stroke:none;fill-rule:nonzero;fill:rgb(99.215686%,99.215686%,99.215686%);fill-opacity:1;" d="M 792.707031 289.796875 C 765.078125 289.796875 738.40625 289.796875 711.183594 289.796875 C 711.183594 230.28125 711.183594 171.1875 711.183594 111.546875 C 770.355469 111.546875 829.652344 111.546875 889.503906 111.546875 C 889.503906 170.515625 889.503906 229.609375 889.503906 289.796875 C 857.644531 289.796875 825.652344 289.796875 792.707031 289.796875 M 875.335938 150.574219 C 876.273438 148.496094 877.210938 146.421875 878.285156 144.035156 C 869.511719 143.207031 864.5625 146.203125 861.25 153.679688 C 852.035156 174.488281 842.207031 195.027344 832.546875 215.636719 C 831.207031 218.496094 829.429688 221.152344 827.855469 223.902344 C 827.027344 223.71875 826.199219 223.535156 825.375 223.355469 C 820.105469 196.878906 814.839844 170.398438 809.515625 143.625 C 802.21875 144.71875 797.4375 148.132812 794.910156 155.777344 C 791.742188 165.34375 787.328125 174.515625 783.195312 183.746094 C 777.5625 196.328125 771.6875 208.804688 764.769531 223.804688 C 758.433594 195.046875 752.742188 169.222656 747.292969 144.503906 C 738.566406 144.503906 730.96875 144.503906 722.386719 144.503906 C 735.894531 159.078125 735.964844 159.058594 739.90625 173.058594 C 741.792969 179.75 743.523438 186.496094 745.015625 193.285156 C 748.871094 210.800781 752.554688 228.359375 756.292969 245.828125 C 764.609375 244.609375 767.660156 239.871094 770.246094 232.972656 C 777.554688 213.457031 785.941406 194.335938 793.988281 175.097656 C 795.457031 171.589844 797.328125 168.25 799.925781 162.988281 C 805.921875 192.105469 811.453125 218.9375 816.980469 245.769531 C 817.921875 246.230469 818.863281 246.691406 819.804688 247.152344 C 823.238281 243.257812 827.539062 239.835938 829.964844 235.394531 C 845.109375 207.65625 859.835938 179.695312 875.335938 150.574219 Z M 875.335938 150.574219 "/>
<path style=" stroke:none;fill-rule:nonzero;fill:rgb(4.705882%,4.705882%,4.705882%);fill-opacity:1;" d="M 873.109375 154.648438 C 857.929688 183.152344 843.203125 211.113281 828.058594 238.851562 C 825.632812 243.292969 821.332031 246.714844 817.898438 250.609375 C 816.957031 250.148438 816.015625 249.6875 815.074219 249.226562 C 809.546875 222.394531 804.019531 195.5625 798.015625 166.445312 C 795.421875 171.707031 793.550781 175.046875 792.082031 178.550781 C 784.035156 197.792969 775.648438 216.910156 768.339844 236.429688 C 765.753906 243.328125 762.707031 248.066406 754.386719 249.285156 C 750.648438 231.8125 746.964844 214.257812 743.109375 196.738281 C 741.617188 189.953125 739.886719 183.207031 738 176.515625 C 734.058594 162.515625 733.988281 162.535156 720.480469 147.957031 C 729.0625 147.957031 736.660156 147.957031 745.386719 147.957031 C 750.832031 172.679688 756.523438 198.503906 762.863281 227.261719 C 769.78125 212.257812 775.65625 199.785156 781.289062 187.203125 C 785.421875 177.972656 789.835938 168.796875 793.003906 159.234375 C 795.535156 151.589844 800.3125 148.175781 807.609375 147.082031 C 812.933594 173.855469 818.199219 200.332031 823.46875 226.808594 C 824.292969 226.992188 825.121094 227.175781 825.949219 227.359375 C 827.523438 224.609375 829.296875 221.953125 830.640625 219.09375 C 840.300781 198.484375 850.128906 177.945312 859.34375 157.136719 C 862.65625 149.660156 867.605469 146.664062 876.378906 147.492188 C 875.304688 149.875 874.367188 151.953125 873.109375 154.648438 Z M 873.109375 154.648438 "/>
</g>
</svg>
