<?xml version="1.0" encoding="utf-8"?>
<svg version="1.1" id="Layer_1" x="0px" y="0px" width="100%" viewBox="0 0 200 200" enable-background="new 0 0 200 200" xmlns="http://www.w3.org/2000/svg" xmlns:bx="https://boxy-svg.com">
  <defs/>
  <path style="fill: rgb(255, 255, 255); paint-order: fill; fill-rule: nonzero;" d="M 0 0 H 200 V 200 H 0 V 0 Z" bx:shape="rect 0 0 200 200 0 0 0 0 1@67945f9c"/>
  <g transform="matrix(0.954632, 0, 0, 0.951425, 3.753612, 4.105571)" style="transform-origin: -3.75361px -4.10557px;">
    <path fill="#0B0B0B" opacity="1.000000" stroke="none" d="&#10;M48.629322,124.999580&#10;&#9;C48.629547,101.840843 48.619999,79.182106 48.635654,56.523392&#10;&#9;C48.640610,49.355450 49.530590,48.462379 56.728580,48.458607&#10;&#9;C86.218239,48.443146 115.707924,48.443817 145.197586,48.457951&#10;&#9;C152.465271,48.461437 153.359116,49.332531 153.363007,56.457588&#10;&#9;C153.379211,86.113853 153.378677,115.770142 153.363617,145.426407&#10;&#9;C153.360016,152.543716 152.366608,153.537964 145.260117,153.541565&#10;&#9;C115.770454,153.556549 86.280769,153.556061 56.791115,153.542023&#10;&#9;C49.625954,153.538620 48.661720,152.571198 48.635368,145.492523&#10;&#9;C48.610554,138.828293 48.629570,132.163910 48.629322,124.999580&#10;M97.500000,147.980560&#10;&#9;C114.255928,147.980560 131.011856,147.980560 147.698639,147.980560&#10;&#9;C147.698639,116.351746 147.698639,85.295731 147.698639,54.305321&#10;&#9;C116.351524,54.305321 85.294144,54.305321 54.301266,54.305321&#10;&#9;C54.301266,85.648048 54.301266,116.704063 54.301266,147.980560&#10;&#9;C68.559349,147.980560 82.529678,147.980560 97.500000,147.980560&#10;z"/>
    <g>
      <path fill="#FDFDFD" opacity="1.000000" stroke="none" d="&#10;M97.000000,147.980560&#10;&#9;C82.529678,147.980560 68.559349,147.980560 54.301266,147.980560&#10;&#9;C54.301266,116.704063 54.301266,85.648048 54.301266,54.305321&#10;&#9;C85.294144,54.305321 116.351524,54.305321 147.698639,54.305321&#10;&#9;C147.698639,85.295731 147.698639,116.351746 147.698639,147.980560&#10;&#9;C131.011856,147.980560 114.255928,147.980560 97.000000,147.980560&#10;M140.278732,74.816017&#10;&#9;C140.769379,73.724480 141.260040,72.632942 141.823792,71.378777&#10;&#9;C137.227951,70.945076 134.635452,72.519203 132.901230,76.448326&#10;&#9;C128.074722,87.383415 122.927795,98.177452 117.866959,109.008278&#10;&#9;C117.164917,110.510757 116.234451,111.906509 115.409737,113.351662&#10;&#9;C114.976471,113.255692 114.543198,113.159721 114.109932,113.063751&#10;&#9;C111.351700,99.149155 108.593460,85.234566 105.804428,71.164597&#10;&#9;C101.982124,71.739098 99.479256,73.532967 98.154205,77.549431&#10;&#9;C96.495499,82.577301 94.183586,87.398308 92.019188,92.248611&#10;&#9;C89.068382,98.861221 85.990646,105.417206 82.368294,113.301254&#10;&#9;C79.048759,98.188141 76.067604,84.615578 73.214226,71.624779&#10;&#9;C68.644859,71.624779 64.664200,71.624779 60.169075,71.624779&#10;&#9;C67.243683,79.285316 67.280991,79.274849 69.346039,86.632607&#10;&#9;C70.332954,90.148972 71.239922,93.693451 72.022141,97.260483&#10;&#9;C74.041061,106.467117 75.970375,115.693398 77.927597,124.874886&#10;&#9;C82.284966,124.233894 83.882889,121.744354 85.236107,118.118813&#10;&#9;C89.064514,107.861717 93.457031,97.814400 97.672333,87.703217&#10;&#9;C98.440857,85.859756 99.421753,84.104828 100.780746,81.340553&#10;&#9;C103.923096,96.642525 106.818794,110.743385 109.714493,124.844254&#10;&#9;C110.207481,125.086456 110.700470,125.328667 111.193466,125.570877&#10;&#9;C112.992035,123.524216 115.244827,121.724731 116.515076,119.390556&#10;&#9;C124.447105,104.814743 132.159561,90.119431 140.278732,74.816017&#10;z">
        <title>W</title>
      </path>
      <path fill="#0C0C0C" opacity="1.000000" stroke="none" d="M 139.113 76.956 C 131.161 91.936 123.449 106.631 115.517 121.207 C 114.246 123.541 111.994 125.34 110.195 127.387 C 109.702 127.145 109.209 126.903 108.716 126.66 C 105.82 112.559 102.925 98.459 99.782 83.157 C 98.423 85.921 97.442 87.676 96.674 89.519 C 92.459 99.63 88.066 109.678 84.238 119.935 C 82.884 123.56 81.287 126.05 76.929 126.691 C 74.972 117.509 73.043 108.283 71.024 99.077 C 70.242 95.51 69.335 91.965 68.348 88.449 C 66.283 81.091 66.245 81.101 59.171 73.441 C 63.666 73.441 67.646 73.441 72.216 73.441 C 75.069 86.432 78.05 100.004 81.37 115.117 C 84.992 107.233 88.07 100.677 91.021 94.065 C 93.185 89.214 95.497 84.393 97.156 79.366 C 98.481 75.349 100.984 73.555 104.806 72.981 C 107.595 87.051 110.353 100.965 113.112 114.88 C 113.545 114.976 113.978 115.072 114.411 115.168 C 115.236 113.723 116.166 112.327 116.869 110.824 C 121.929 99.994 127.076 89.199 131.903 78.264 C 133.637 74.335 136.23 72.761 140.825 73.195 C 140.262 74.449 139.771 75.541 139.113 76.956 Z">
        <title>shade</title>
      </path>
    </g>
  </g>
</svg>